<?xml version="1.0" encoding="iso-8859-1"?>
<!-- Generator: Adobe Illustrator 19.0.0, SVG Export Plug-In . SVG Version: 6.00 Build 0)  -->
<svg xmlns="http://www.w3.org/2000/svg" xmlns:xlink="http://www.w3.org/1999/xlink" version="1.1" id="Layer_1" x="0px" y="0px" viewBox="0 0 512 512" style="enable-background:new 0 0 512 512;" xml:space="preserve">
<polygon style="fill:#3E495A;" points="256.001,373.983 99.28,299.397 8.093,342.794 256.001,460.777 503.907,342.796   412.72,299.398 "/>
<g style="opacity:0.1;">
	<path style="fill:#231F20;" d="M252.793,400.914c0,0,0.009,0.004,0.011,0.005l0.422,0.201c0.925,0.391,3.25,1.094,5.983-0.206   c0.002-0.001,0.002-0.001,0.004-0.002l183.406-87.285l-29.898-14.23l-156.719,74.585L99.28,299.397l-29.898,14.228L252.793,400.914   L252.793,400.914z"/>
</g>
<polyline style="fill:#F57555;" points="273.183,279.011 256.001,287.189 99.28,212.603 8.093,256 256.001,373.983 503.907,256   412.72,212.603 "/>
<g style="opacity:0.1;">
	<path style="fill:#231F20;" d="M249.963,311.627l0.006,0.003l0.858,0.408c1.775,0.742,6.112,2.016,11.212-0.411l0,0l179.376-85.368   l-28.695-13.656l-139.536,66.408l-17.182,8.177L99.28,212.603l-28.695,13.656L249.963,311.627L249.963,311.627z"/>
</g>
<polyline style="fill:#EAE8E8;" points="371.664,232.144 503.907,169.207 255.999,51.223 8.093,169.206 256.001,287.189   349.163,242.852 "/>
<polyline style="fill:#CECCCC;" points="412.72,212.603 255.999,138.017 99.28,212.602 256.001,287.189 "/>
<path style="fill:#231F20;" d="M512,256c0-3.123-1.795-5.966-4.615-7.308l-75.831-36.089l75.831-36.09  c2.819-1.342,4.615-4.186,4.615-7.307c0-3.123-1.795-5.965-4.615-7.308L259.477,43.916c-2.2-1.048-4.754-1.048-6.954,0  L4.615,161.897C1.795,163.24,0,166.083,0,169.206c0,3.122,1.795,5.965,4.615,7.307l75.833,36.09l-75.833,36.09  C1.795,250.035,0,252.878,0,256c0,3.122,1.795,5.965,4.615,7.307l75.832,36.09L4.615,335.485C1.795,336.828,0,339.671,0,342.794  c0,3.122,1.795,5.965,4.615,7.307l247.908,117.984c1.101,0.523,2.289,0.785,3.478,0.785c1.189,0,2.377-0.261,3.478-0.785  l247.906-117.982c2.819-1.342,4.615-4.185,4.615-7.307c0-3.123-1.795-5.965-4.615-7.307l-75.832-36.09l75.832-36.09  C510.205,261.965,512,259.122,512,256z M255.999,60.185l229.076,109.022l-72.355,34.435L259.475,130.71  c-2.2-1.048-4.754-1.048-6.954,0L99.279,203.64l-72.355-34.435L255.999,60.185z M485.075,342.796l-229.074,109.02L26.925,342.794  l72.355-34.435l153.244,72.931c0.275,0.131,0.556,0.246,0.841,0.343c1.708,0.589,3.566,0.589,5.274,0  c0.285-0.098,0.565-0.213,0.841-0.343l153.242-72.931L485.075,342.796z M409.243,292.09L409.243,292.09L256.001,365.02  L102.757,292.09c-0.003-0.002-0.006-0.003-0.011-0.004l-75.823-36.084l72.357-34.436l153.243,72.931  c0.275,0.131,0.556,0.246,0.841,0.343l0,0c0.864,0.299,1.752,0.443,2.632,0.443c0.03,0,0.06-0.007,0.092-0.007  c0.31-0.003,0.619-0.026,0.928-0.065c0.113-0.015,0.223-0.038,0.336-0.056c0.231-0.039,0.46-0.086,0.688-0.146  c0.117-0.03,0.232-0.063,0.347-0.098c0.084-0.026,0.169-0.043,0.253-0.071c0.14-0.049,0.276-0.113,0.414-0.169  c0.104-0.042,0.207-0.08,0.31-0.126c0.039-0.017,0.079-0.029,0.117-0.047l17.182-8.177c0.001,0,0.002-0.001,0.003-0.002  l75.977-36.158c4.036-1.921,5.75-6.749,3.831-10.785c-1.921-4.036-6.75-5.75-10.785-3.831l-75.976,36.158  c-0.001,0-0.003,0.001-0.004,0.001l-13.705,6.523l-137.889-65.624l137.887-65.623l137.89,65.625l-25.702,12.232  c-4.035,1.921-5.75,6.749-3.83,10.785c1.922,4.037,6.751,5.754,10.785,3.831l37.579-17.885l72.353,34.434L409.243,292.09z"/>
<g>
</g>
<g>
</g>
<g>
</g>
<g>
</g>
<g>
</g>
<g>
</g>
<g>
</g>
<g>
</g>
<g>
</g>
<g>
</g>
<g>
</g>
<g>
</g>
<g>
</g>
<g>
</g>
<g>
</g>
</svg>
